# xmcd
#
# Track frame offsets:
#	150
#	16162
#	33515
#
# Disc length: 704 seconds
#
# Revision: 0
# Processed by: cddbd v1.5.2PL0 Copyright (c) Steve Scherf et al.
# Submitted via: audiograbber 1.83.01
#
DISCID=1802be03
DTITLE=Wiebke Schroeder - (Maxisingle)
DYEAR=1993
DGENRE=Schlager
TTITLE0=Ohne Dich
TTITLE1=Fallschirm
TTITLE2=Gänsehaut
EXTD=
EXTT0=
EXTT1=
EXTT2=
PLAYORDER=
